<svg xmlns="http://www.w3.org/2000/svg" width="1920" height="355" viewBox="0 0 1920 355"><path fill="#F8F9FA" d="M0 162.5v162.4l8.3-3.5c19.8-8.5 72-29.8 104.5-42.5 166-65.3 303.3-108.4 393.1-123.4 47.2-7.9 74.9-7.9 117.7 0 36.2 6.7 60.8 15.2 106 36.5 44.3 21 58.3 24 84 18 15.3-3.6 31.6-11 77.9-35.7 38.6-20.6 48.7-25.7 67.2-33.9 38.9-17.2 68.9-24.8 98.3-24.8 23.4 0 36.9 3.4 60.5 14.9 18.3 9 29.5 13.3 46.2 17.9 22.2 6.1 44.8 10 74.8 12.8 20.8 1.9 85.9 1.6 109.5-.5 37.2-3.4 64.7-7.9 84.8-13.7 30.1-8.7 227.7-47.9 458.9-91.1l28.3-5.3V0H0v162.5z"/></svg>